<svg xmlns="http://www.w3.org/2000/svg" viewBox="0 0 159 40">
  <g fill="none" fill-rule="evenodd">
    <path d="M-10-10h179v60H-10z"/>
    <path fill="#0072FF" d="M36.955 12.364L27.74 32.352h-3.68l9.698-21.036c1.136.18 2.212.534 3.197 1.048zM20.838.624L6.663 31.377C3.046 29.7.53 26.03.53 21.763c0-5.848 4.714-10.59 10.53-10.59 0-5.592 4.315-10.16 9.778-10.55zm11.283 10.55l-9.76 21.18h-3.99L30.63 5.76c.94 1.586 1.492 3.432 1.492 5.413h.002zm3.63 20.52L42 18.134c.41 1.133.65 2.352.65 3.63 0 4.562-2.877 8.44-6.9 9.93zm2.76-18.333c.88.68 1.64 1.48 2.27 2.39L33.15 32.3c-.34.033-.682.052-1.03.052h-2.37l8.755-18.99zM21.63.59c1.493.006 2.91.328 4.196.897l-14.23 30.868h-.535c-1.32 0-2.58-.256-3.75-.704L21.63.59zm8.166 3.96l-12.82 27.802h-4.3l14.03-30.428c1.19.668 2.24 1.56 3.09 2.624z"/>
    <path fill="#242628" d="M55.06 26.59c1.167 1.313 2.95 2.3 4.823 2.306 1.756.007 2.99-1.088 2.995-2.602.01-2.674-3.795-3.015-6.54-4.66-1.608-.955-2.89-2.386-2.883-4.733.013-3.71 3.388-5.84 6.783-5.82 2.08.01 4.01.52 5.937 1.98l-2.06 2.97c-.817-.77-2.19-1.37-3.538-1.38-1.493 0-3.163.65-3.17 2.25-.01 3.36 9.45 2.35 9.424 9.36-.01 3.69-3.27 6.23-6.96 6.22-2.75-.01-5.29-1.176-7.39-3.144l2.59-2.724zm21.965-2.295l7.788 7.96-5.123-.02-5.98-6.258-.022 6.238-3.806-.015.075-21.09 3.806.013-.04 11.348 4.906-4.64 5.35.02-6.96 6.45zm11.07 15.102l3.953-8.57L85.74 17.85l4.187.016 4.127 8.66 3.865-8.63 4.01.014-9.86 21.502-3.98-.015zm28.732-9.965c-1.677 2.252-3.788 3.224-6.452 3.215-4.392-.017-7.6-3.355-7.586-7.514.01-4.188 3.33-7.503 7.66-7.488 2.46.01 4.65 1.175 5.96 2.903l-2.71 2.397c-.76-1.013-1.9-1.73-3.27-1.735-2.2-.008-3.84 1.738-3.85 3.937-.01 2.257 1.59 3.927 3.91 3.935 1.55.006 2.78-.94 3.4-1.89l2.92 2.24zm9.31-.293c2.224 0 3.753-1.74 3.76-3.91.008-2.17-1.508-3.96-3.732-3.97-2.226-.01-3.754 1.77-3.76 3.94-.01 2.17 1.506 3.92 3.732 3.93m.04-11.44c4.303.01 7.542 3.38 7.527 7.54-.015 4.16-3.276 7.47-7.58 7.46-4.303-.02-7.54-3.36-7.526-7.518.014-4.16 3.276-7.506 7.58-7.49m14.525 14.76l-3.806-.016.05-14.404 3.807.015-.05 14.405zm-1.825-21.99c1.376.004 2.484 1.08 2.48 2.474-.005 1.4-1.122 2.46-2.498 2.46-1.375-.006-2.484-1.08-2.48-2.476.006-1.396 1.122-2.46 2.498-2.456zm5.514 22.004l.05-14.404 3.66.014-.004 1.16c1.087-.886 2.435-1.445 4.016-1.44 1.96.008 3.744.905 4.91 2.336.933 1.13 1.455 2.59 1.446 5.055l-.025 7.34-3.807-.013.027-7.635c.006-1.423-.314-2.17-.84-2.703-.495-.51-1.255-.81-2.133-.81-1.61-.01-2.93 1.03-3.46 1.77l-.034 9.356-3.806-.013z"/>
  </g>
</svg>
